# xmcd CD database file
#
# Track frame offsets:
#	150
#	20276
#	41577
#	51136
#	66823
#	98444
#	127177
#	146446
#	165090
#	181566
#
# Disc length: 2644 seconds
#
# Revision: 0
# Processed by: cddbd v1.5.1PL0 Copyright (c) Steve Scherf et al.
# Submitted via: CDex 1.51
#
DISCID=730a520a
DTITLE=Palermo Boogie Gang -  The Palermo Boogie Gang N 1
DYEAR=1990
DGENRE=Blues
TTITLE0=Everyday
TTITLE1=Done Got Over It
TTITLE2=Too Late
TTITLE3=Good Jelly
TTITLE4=Sweet Little Angel
TTITLE5=Caledonia
TTITLE6=I Wanda See My Baby
TTITLE7=TEll Me Mama
TTITLE8=It Harts Me Too
TTITLE9=Fregatt Jump
EXTD=YEAR: 1990
EXTT0=
EXTT1=
EXTT2=
EXTT3=
EXTT4=
EXTT5=
EXTT6=
EXTT7=
EXTT8=
EXTT9=
PLAYORDER=
